<?xml version="1.0" encoding="utf-8"?>
<!-- Generator: Adobe Illustrator 27.3.1, SVG Export Plug-In . SVG Version: 6.00 Build 0)  -->
<svg version="1.1" id="Camada_1" xmlns="http://www.w3.org/2000/svg" xmlns:xlink="http://www.w3.org/1999/xlink" x="0px" y="0px"
	 viewBox="0 0 2000 2000" style="enable-background:new 0 0 2000 2000;" xml:space="preserve">
<style type="text/css">
	.st0{fill:#A136FF;}
</style>
<g>
	<path class="st0" d="M1345.7,1007.8c10.1-3.6,24.4,3.5,34.1,6.3c40.9,11.8,79.2,34.4,101.5,71.6c56.3,94,39.7,241.8-48.1,312.5
		c-48.8,39.3-112.8,44.1-172.6,49.4c-75.7,6.8-151.7,5.8-227.6,6.7c-135.6,1.7-273.1,9.2-405.4-20.8
		c-56.6-12.8-116.7-39.3-139.9-96.8c-14.1-34.8-14.4-82.2-16.3-119.3c-2.2-41.8-0.8-83.7,4.1-125.2c57.8-0.5,115.6-0.9,173.4-1.4
		c5.1,0,10.6,0.1,14.4,3.4c3.8,3.3,4.8,8.7,5.4,13.6c2.9,24.5,1.5,49.4,5.6,73.7c4.1,24.3,14.9,49.1,35.8,62.2
		c15.9,10,35.4,11.8,54.2,13.2c140.6,10.7,281.9,11.6,422.6,3.8c28-1.5,59.6-5.3,76.6-27.6c11-14.5,13.1-33.8,14.3-52
		c2-30.4,2.7-60.9,1.9-91.4c-0.2-7-0.9-15-6.6-19c-3.8-2.7-8.8-2.9-13.5-2.9c-26.7-0.2-53.4-0.3-80-0.5c-9-0.1-18.7,0.2-25.7,5.8
		c-9,7.3-9.9,20.6-15.3,30.9c-10.4,19.9-35.7,25.8-58,28.5c-65.4,8-131.8,7.2-196.9-2.2c-12.6-1.8-25.7-4.2-35.7-11.9
		c-14.1-10.9-19-29.7-21.9-47.2c-8.1-48.1-8-97.6,0.3-145.7c2.9-16.7,7.4-34.4,20.3-45.3c11.2-9.5,26.5-12,41.1-13.9
		c58.9-7.4,118.5-8.7,177.6-4c25,2,52.2,6.2,68.8,24.9c7.8,8.8,13.2,20.6,23.9,25.4c6,2.7,12.7,2.7,19.2,2.7
		c24.6-0.1,49.2-0.2,73.8-0.3c4,0,8.2-0.1,11.4-2.5c4.5-3.5,4.8-10,4.7-15.7c-0.6-26.4-1.5-52.9-2.8-79.3
		c-1.1-21.9-3.5-46.3-19.8-61c-13.8-12.5-33.7-14.7-52.3-16c-144.6-10.8-290.1-10.7-434.7,0.2c-17.1,1.3-35,2.9-49.6,11.9
		c-21.2,12.8-31.5,38.3-34.8,62.8c-3.3,24.6-1,49.6-3.9,74.2c-0.6,5.1-1.7,10.7-5.8,13.8c-3.5,2.7-8.3,2.8-12.7,2.8
		c-53.2,0-106.4,0.1-159.6,0.1c-5.1,0-11-0.3-14.2-4.3c-2.6-3.1-2.7-7.5-2.7-11.5c0-41.1,0-82.2,1-123.3c0.8-38,2.8-77.3,19.7-111.3
		c20.6-41.5,61.3-70.1,105-85.5c43.6-15.4,90.4-19.1,136.6-22c116.8-7.3,234-9.9,351-6.6c76.6,2.2,153.3,6.9,228.9,19.8
		c35.4,6.1,71.6,14.5,100.9,35.4c33.6,24.1,54.4,62.6,66.1,102.2C1518.4,818.7,1470.4,963.8,1345.7,1007.8z"/>
</g>
</svg>
