<?xml version="1.0" encoding="utf-8"?>
<!-- Generator: Adobe Illustrator 27.3.1, SVG Export Plug-In . SVG Version: 6.00 Build 0)  -->
<svg version="1.1" id="Camada_1" xmlns="http://www.w3.org/2000/svg" xmlns:xlink="http://www.w3.org/1999/xlink" x="0px" y="0px"
	 viewBox="0 0 80 80" style="enable-background:new 0 0 80 80;" xml:space="preserve">
<style type="text/css">
	.st0{fill:#330000;}
	.st1{fill:#FF9A00;}
</style>
<g>
	<path class="st0" d="M25.71,18.43h28.58c4.33,0,7.84,3.5,7.84,7.84v27.47c0,4.33-3.5,7.84-7.84,7.84H25.71
		c-4.33,0-7.84-3.5-7.84-7.84V26.26C17.88,21.93,21.38,18.43,25.71,18.43z"/>
	<path class="st1" d="M39.26,44.24H32.4L31,48.57c-0.04,0.17-0.18,0.28-0.35,0.26h-3.47c-0.2,0-0.26-0.11-0.2-0.33l5.94-17.09
		c0.06-0.18,0.11-0.39,0.18-0.61c0.07-0.39,0.11-0.79,0.11-1.2c-0.02-0.09,0.06-0.18,0.15-0.2h4.78c0.15,0,0.22,0.06,0.24,0.15
		l6.73,18.99c0.06,0.2,0,0.3-0.18,0.3h-3.85c-0.13,0.02-0.26-0.07-0.3-0.2L39.26,44.24z M33.47,40.5h4.68
		c-0.11-0.39-0.26-0.85-0.42-1.33c-0.17-0.5-0.33-1.03-0.5-1.59c-0.18-0.57-0.35-1.12-0.53-1.7c-0.18-0.57-0.35-1.11-0.5-1.64
		c-0.15-0.52-0.28-1-0.41-1.44h-0.04c-0.17,0.79-0.37,1.59-0.63,2.38c-0.28,0.89-0.55,1.81-0.85,2.73
		C34.03,38.86,33.75,39.72,33.47,40.5z M49.22,32.62c-0.61,0.02-1.2-0.22-1.64-0.65c-0.42-0.46-0.65-1.07-0.63-1.7
		c-0.02-0.63,0.22-1.22,0.66-1.64c0.44-0.42,1.03-0.65,1.64-0.65c0.72,0,1.27,0.22,1.68,0.65c0.41,0.44,0.63,1.03,0.61,1.64
		c0.02,0.63-0.2,1.24-0.65,1.7C50.47,32.42,49.85,32.66,49.22,32.62L49.22,32.62z M47.15,48.63v-14.2c0-0.18,0.07-0.26,0.24-0.26
		h3.65c0.17,0,0.24,0.09,0.24,0.26v14.2c0,0.2-0.07,0.3-0.24,0.3h-3.61C47.25,48.92,47.15,48.81,47.15,48.63z"/>
</g>
</svg>
