<?xml version="1.0" encoding="utf-8"?>
<!-- Generator: Adobe Illustrator 27.3.1, SVG Export Plug-In . SVG Version: 6.00 Build 0)  -->
<svg version="1.1" id="Camada_1" xmlns="http://www.w3.org/2000/svg" xmlns:xlink="http://www.w3.org/1999/xlink" x="0px" y="0px"
	 viewBox="0 0 1920 1920" style="enable-background:new 0 0 1920 1920;" xml:space="preserve">
<style type="text/css">
	.st0{fill:#444444;}
</style>
<path class="st0" d="M265.3,543.7l679.8-392.5c10-5.8,22.4-5.8,32.4,0L1580.1,499c16.2,9.4,16.2,32.8,0,42.1L484.9,1173.5
	c-7.5,4.3-12.1,12.4-12.1,21v271c0,13.1-14.2,21.3-25.5,14.7l-181.9-105c-7.5-4.3-12.1-12.4-12.1-21V1059c0-8.7,4.6-16.7,12.1-21
	l870.5-502.6c12.7-7.4,12.7-25.7,0-33l-164.1-94.7c-7.5-4.4-16.8-4.3-24.4,0L275.7,797.3c-10,5.8-22.5-1.4-22.5-13V564.7
	C253.1,556,257.8,548,265.3,543.7z"/>
<path class="st0" d="M578.8,1264.3v278c0,8.7,4.6,16.7,12.1,21l356.3,206.6c7.5,4.4,16.8,4.4,24.4,0l683-394.4
	c7.5-4.3,12.1-12.4,12.1-21v-212.3c0-13.1-14.2-21.3-25.6-14.7l-669.1,389.3c-7.5,4.4-16.8,4.4-24.4,0l-121.5-70.2
	c-7.5-4.3-12.1-12.4-12.1-21v-36.3c0-8.7,4.6-16.7,12.1-21L1654.7,890c7.5-4.3,12.1-12.4,12.1-21V652.2c0-13.4-14.5-21.7-26.1-15.1
	L591,1243.2C583.5,1247.6,578.8,1255.6,578.8,1264.3z"/>
</svg>
