<?xml version="1.0" encoding="utf-8"?>
<!-- Generator: Adobe Illustrator 27.3.1, SVG Export Plug-In . SVG Version: 6.00 Build 0)  -->
<svg version="1.1" id="Camada_1" xmlns="http://www.w3.org/2000/svg" xmlns:xlink="http://www.w3.org/1999/xlink" x="0px" y="0px"
	 viewBox="0 0 1920 1920" style="enable-background:new 0 0 1920 1920;" xml:space="preserve">
<style type="text/css">
	.st0{fill:#f2f2f204;}
</style>
<path class="st0" d="M628.29,761.22L952.9,573.8c4.79-2.76,10.69-2.76,15.48,0l287.69,166.1c7.74,4.47,7.74,15.64,0,20.11
	l-522.93,301.91c-3.59,2.07-5.8,5.91-5.8,10.05v129.41c0,6.26-6.77,10.16-12.19,7.04l-86.86-50.15c-3.59-2.07-5.8-5.91-5.8-10.05
	v-140.95c0-4.15,2.21-7.98,5.8-10.05l415.65-239.98c6.07-3.51,6.07-12.27,0-15.78l-78.36-45.24c-3.6-2.08-8.04-2.07-11.63,0.01
	l-320.71,186.1c-4.77,2.77-10.75-0.67-10.75-6.19V771.27C622.48,767.12,624.7,763.29,628.29,761.22z"/>
<path class="st0" d="M778.01,1105.28v132.75c0,4.14,2.2,7.97,5.79,10.04l170.15,98.63c3.59,2.08,8.03,2.09,11.63,0.01l326.14-188.3
	c3.59-2.07,5.8-5.91,5.8-10.05v-101.35c0-6.27-6.8-10.18-12.21-7.02l-319.49,185.89c-3.6,2.09-8.04,2.1-11.64,0.02l-58.02-33.5
	c-3.59-2.07-5.8-5.91-5.8-10.05v-17.34c0-4.15,2.21-7.98,5.8-10.05l395.56-228.38c3.59-2.07,5.8-5.91,5.8-10.05V813.02
	c0-6.39-6.92-10.38-12.45-7.19l-501.25,289.4C780.22,1097.3,778.01,1101.13,778.01,1105.28z"/>
</svg>
