<?xml version="1.0" encoding="utf-8"?>
<!-- Generator: Adobe Illustrator 27.3.1, SVG Export Plug-In . SVG Version: 6.00 Build 0)  -->
<svg version="1.1" id="Camada_1" xmlns="http://www.w3.org/2000/svg" xmlns:xlink="http://www.w3.org/1999/xlink" x="0px" y="0px"
	 viewBox="0 0 2000 500" style="enable-background:new 0 0 2000 500;" xml:space="preserve">
<style type="text/css">
	.st0{fill:#1A1A1A;}
	.st1{fill:#4D4D4D;}
	.st2{fill:#999999;stroke:#F2F2F2;stroke-width:1.2824;stroke-miterlimit:10;}
	.st3{font-family:'MADETOMMY';}
	.st4{font-size:33.048px;}
</style>
<g>
	<path class="st0" d="M519.88,119.87L350.27,21.94c-2.82-1.63-6.3-1.63-9.13,0L149.76,132.43c-2.12,1.22-3.42,3.48-3.42,5.93v61.83
		c0,3.25,3.52,5.28,6.34,3.65L341.76,94.12c2.12-1.23,4.73-1.23,6.86-0.01l46.2,26.67c3.58,2.07,3.58,7.24,0,9.3L149.76,271.57
		c-2.12,1.22-3.42,3.48-3.42,5.93v83.1c0,2.45,1.3,4.7,3.42,5.93l51.21,29.57c3.19,1.84,7.19-0.46,7.19-4.15v-76.3
		c0-2.45,1.3-4.7,3.42-5.93l308.3-178C524.44,129.09,524.44,122.5,519.88,119.87z"/>
	<path class="st0" d="M536.98,158.74L241.46,329.36c-2.12,1.22-3.42,3.48-3.42,5.93v78.27c0,2.44,1.3,4.7,3.41,5.92l100.32,58.15
		c2.12,1.23,4.73,1.23,6.85,0.01L540.9,366.61c2.12-1.22,3.42-3.48,3.42-5.93v-59.75c0-3.7-4.01-6-7.2-4.14L348.76,406.39
		c-2.12,1.23-4.74,1.24-6.86,0.01l-34.21-19.75c-2.12-1.22-3.42-3.48-3.42-5.93V370.5c0-2.45,1.3-4.7,3.42-5.93L540.9,229.93
		c2.12-1.22,3.42-3.48,3.42-5.93v-61.03C544.32,159.21,540.24,156.85,536.98,158.74z"/>
	<path class="st1" d="M814.04,186.53c-19.06,0-33.22,6.07-43.55,14.94c-3.09,2.66-7.88,0.41-7.88-3.67v-4.13
		c0-2.1-1.7-3.81-3.81-3.81h-17.68c-2.1,0-3.81,1.7-3.81,3.81v186.96c0,2.1,1.7,3.81,3.81,3.81h17.68c2.1,0,3.81-1.7,3.81-3.81
		v-57.71c0-4.06,4.79-6.29,7.85-3.62c10.33,9.01,24.5,15.1,43.58,15.1c43.92,0,70.05-36.97,70.05-73.94S857.96,186.53,814.04,186.53
		z M811.54,310.23c-31.13,0-48.92-21.96-48.92-49.76s17.79-50.04,48.92-50.04c28.91,0,46.7,21.68,46.7,50.04
		C858.24,288.83,840.45,310.23,811.54,310.23z"/>
	<path class="st1" d="M933.66,189.87h-17.98c-2.1,0-3.79,1.7-3.79,3.79V327c0,2.1,1.7,3.79,3.79,3.79h17.98
		c2.1,0,3.79-1.7,3.79-3.79V193.66C937.46,191.57,935.76,189.87,933.66,189.87z"/>
	<path class="st1" d="M924.67,135.94c-9.36,0-16.47,8.99-13.94,18.28c1.65,6.05,7.18,10.42,13.45,10.62
		c8.29,0.26,14.94-6.22,14.94-14.45C939.12,142.61,932.73,135.94,924.67,135.94z"/>
	<path class="st1" d="M1036.68,186.53c-41.42,0-71.44,33.36-71.44,73.94s28.91,73.94,75.61,73.94c22.8,0,42.06-8.26,54.73-22.83
		c1.72-1.97,1.27-5.01-0.93-6.42l-13.72-8.78c-1.73-1.1-3.98-0.82-5.4,0.65c-8.05,8.38-20.79,13.2-34.68,13.2
		c-25.33,0-41.95-13.42-47.46-33.55c-0.74-2.7,1.35-5.36,4.15-5.36h102.84c2.22,0,4.08-1.69,4.27-3.9
		C1109.11,217.19,1074.09,186.53,1036.68,186.53z M1073.53,249.63h-76.03c-2.79,0-4.87-2.63-4.16-5.33
		c5.36-20.4,21.04-33.86,43.34-33.86c22.13,0,36.39,13.1,41.04,34C1078.32,247.1,1076.26,249.63,1073.53,249.63z"/>
	<path class="st1" d="M1200.99,186.69c-13.25,0.99-26.77,6.73-36.18,17.64c-2.29,2.65-6.65,0.98-6.65-2.53v-8.12
		c0-2.1-1.7-3.81-3.81-3.81h-17.68c-2.1,0-3.81,1.7-3.81,3.81v133.32c0,2.1,1.7,3.81,3.81,3.81h17.68c2.1,0,3.81-1.7,3.81-3.81
		V267.7c0-24.99,4.94-55.45,42.95-52.91c2.18,0.15,4.03-1.61,4.03-3.8v-20.5C1205.13,188.25,1203.22,186.52,1200.99,186.69z"/>
	<path class="st1" d="M1292.97,210.44c16.52,0,30.4,7.67,38.98,19.89c1.13,1.61,3.25,2.15,4.97,1.2l15-8.27
		c1.96-1.08,2.58-3.63,1.3-5.46c-13.06-18.67-34.31-31.27-60.25-31.27c-42.53,0-73.94,33.36-73.94,73.94s31.41,73.94,73.94,73.94
		c25.95,0,47.2-12.6,60.26-31.52c1.28-1.85,0.63-4.4-1.35-5.46l-14.98-8.07c-1.71-0.92-3.82-0.38-4.94,1.21
		c-8.57,12.21-22.47,19.65-39,19.65c-27.8,0-48.09-21.13-48.09-49.76C1244.88,231.56,1265.17,210.44,1292.97,210.44z"/>
	<path class="st1" d="M1441.95,186.53c-42.53,0-73.94,33.36-73.94,73.94s31.41,73.94,73.94,73.94c42.53,0,73.94-33.36,73.94-73.94
		S1484.48,186.53,1441.95,186.53z M1441.95,310.23c-27.8,0-47.81-21.13-47.81-49.76c0-28.91,20.01-50.04,47.81-50.04
		c27.8,0,48.09,21.13,48.09,50.04C1490.04,289.1,1469.75,310.23,1441.95,310.23z"/>
	<path class="st1" d="M1678.31,136.22h-17.68c-2.1,0-3.81,1.7-3.81,3.81v57.82c0,4.05-4.77,6.28-7.83,3.63
		c-10.25-8.87-24.25-14.94-43.31-14.94c-43.92,0-70.33,36.97-70.33,73.94s26.41,73.94,70.33,73.94c19.05,0,33.04-6.07,43.29-15.05
		c3.06-2.68,7.86-0.46,7.86,3.61v4.03c0,2.1,1.7,3.81,3.81,3.81h17.68c2.1,0,3.81-1.7,3.81-3.81V140.03
		C1682.11,137.92,1680.41,136.22,1678.31,136.22z M1608.17,310.23c-29.19,0-46.7-21.4-46.7-49.76c0-28.35,17.51-50.04,46.7-50.04
		c30.85,0,48.64,22.24,48.64,50.04S1639.03,310.23,1608.17,310.23z"/>
	<path class="st1" d="M1781.34,186.53c-41.42,0-71.44,33.36-71.44,73.94s28.91,73.94,75.61,73.94c22.8,0,42.06-8.26,54.73-22.83
		c1.72-1.97,1.27-5.01-0.93-6.42l-13.72-8.78c-1.73-1.1-3.98-0.82-5.4,0.65c-8.05,8.38-20.79,13.2-34.68,13.2
		c-25.33,0-41.95-13.42-47.46-33.55c-0.74-2.7,1.35-5.36,4.15-5.36h102.84c2.22,0,4.08-1.69,4.27-3.9
		C1853.77,217.19,1818.74,186.53,1781.34,186.53z M1818.19,249.63h-76.03c-2.79,0-4.87-2.63-4.16-5.33
		c5.36-20.4,21.04-33.86,43.34-33.86c22.12,0,36.39,13.1,41.04,34C1822.97,247.1,1820.92,249.63,1818.19,249.63z"/>
</g>
<text transform="matrix(1 0 0 1 1533.6465 372.0879)" class="st2 st3 st4">development group</text>
</svg>
