<?xml version="1.0" encoding="utf-8"?>
<!-- Generator: Adobe Illustrator 27.3.1, SVG Export Plug-In . SVG Version: 6.00 Build 0)  -->
<svg version="1.1" id="Camada_1" xmlns="http://www.w3.org/2000/svg" xmlns:xlink="http://www.w3.org/1999/xlink" x="0px" y="0px"
	 viewBox="0 0 1920 1920" style="enable-background:new 0 0 1920 1920;" xml:space="preserve">
<style type="text/css">
	.st0{fill:#F2F2F2;}
	.st1{fill:#999999;}
	.st2{font-family:'MADETOMMY';}
	.st3{font-size:25.7702px;}
</style>
<g>
	<path class="st0" d="M1150.13,676.24L965.38,569.58c-3.08-1.78-6.86-1.78-9.94,0L746.99,689.93c-2.31,1.33-3.73,3.79-3.73,6.46
		v67.35c0,3.54,3.84,5.75,6.9,3.98L956.11,648.2c2.31-1.34,5.16-1.34,7.47-0.01l50.32,29.05c3.9,2.25,3.9,7.88,0,10.13
		L746.99,841.48c-2.31,1.33-3.73,3.79-3.73,6.46v90.51c0,2.66,1.42,5.12,3.73,6.46l55.78,32.2c3.48,2.01,7.83-0.5,7.83-4.52v-83.1
		c0-2.66,1.42-5.12,3.73-6.46l335.81-193.88C1155.1,686.29,1155.1,679.11,1150.13,676.24z"/>
	<path class="st0" d="M919,942.78l254.01-146.66c2.31-1.33,3.73-3.79,3.73-6.46V723.2c0-4.1-4.44-6.67-7.99-4.62L846.86,904.42
		c-2.31,1.33-3.73,3.79-3.73,6.46v85.25c0,2.66,1.42,5.12,3.72,6.45l109.27,63.34c2.31,1.34,5.16,1.34,7.47,0.01L1173.01,945
		c2.31-1.33,3.73-3.79,3.73-6.46v-65.09c0-4.02-4.36-6.53-7.84-4.51L963.73,988.32c-2.31,1.34-5.16,1.35-7.48,0.01L919,966.83
		c-2.31-1.33-3.73-3.79-3.73-6.46v-11.13C915.27,946.57,916.69,944.11,919,942.78z"/>
</g>
<g>
	<path class="st0" d="M640.74,1276.35c0,28.83-20.38,57.66-54.62,57.66c-14.88,0-25.93-4.75-33.98-11.77
		c-2.39-2.08-6.12-0.35-6.12,2.82v45c0,1.64-1.33,2.97-2.97,2.97h-13.79c-1.64,0-2.97-1.33-2.97-2.97v-145.79
		c0-1.64,1.33-2.97,2.97-2.97h13.79c1.64,0,2.97,1.33,2.97,2.97v3.22c0,3.18,3.73,4.93,6.14,2.86c8.05-6.91,19.1-11.65,33.96-11.65
		C620.37,1218.69,640.74,1247.52,640.74,1276.35z M620.59,1276.35c0-22.11-13.87-39.02-36.42-39.02
		c-24.28,0-38.15,17.34-38.15,39.02c0,21.68,13.87,38.8,38.15,38.8C606.71,1315.15,620.59,1298.46,620.59,1276.35z"/>
	<path class="st0" d="M661.52,1193.5c-1.98-7.24,3.57-14.26,10.87-14.26c6.29,0,11.27,5.2,11.27,11.27
		c0,6.41-5.19,11.47-11.65,11.27C667.12,1201.63,662.81,1198.22,661.52,1193.5z M665.37,1221.3h14.02c1.63,0,2.96,1.32,2.96,2.96
		v103.98c0,1.63-1.32,2.96-2.96,2.96h-14.02c-1.63,0-2.96-1.32-2.96-2.96v-103.98C662.41,1222.62,663.74,1221.3,665.37,1221.3z"/>
	<path class="st0" d="M809.4,1284.81h-80.19c-2.19,0-3.81,2.07-3.24,4.18c4.3,15.7,17.26,26.16,37.01,26.16
		c10.83,0,20.76-3.76,27.04-10.29c1.11-1.15,2.87-1.37,4.21-0.51l10.7,6.85c1.72,1.1,2.06,3.47,0.72,5.01
		c-9.88,11.36-24.9,17.8-42.68,17.8c-36.42,0-58.96-26.01-58.96-57.66c0-31.65,23.41-57.66,55.71-57.66c29.17,0,56.48,23.9,53,63.07
		C812.58,1283.49,811.13,1284.81,809.4,1284.81z M788.47,1267.9c2.13,0,3.73-1.97,3.27-4.05c-3.62-16.3-14.75-26.51-32-26.51
		c-17.38,0-29.61,10.5-33.79,26.4c-0.55,2.1,1.07,4.16,3.24,4.16H788.47z"/>
	<path class="st0" d="M891.08,1221.78v15.99c0,1.71-1.44,3.08-3.14,2.96c-29.64-1.97-33.49,21.77-33.49,41.26v46.23
		c0,1.64-1.33,2.97-2.97,2.97H837.7c-1.64,0-2.97-1.33-2.97-2.97v-103.96c0-1.64,1.33-2.97,2.97-2.97h13.79
		c1.64,0,2.97,1.33,2.97,2.97v6.33c0,2.73,3.4,4.04,5.19,1.97c7.34-8.51,17.89-12.98,28.22-13.75
		C889.59,1218.69,891.08,1220.03,891.08,1221.78z"/>
	<path class="st0" d="M993.84,1298.88l11.68,6.29c1.54,0.83,2.04,2.82,1.05,4.26c-10.19,14.75-26.76,24.58-46.99,24.58
		c-33.16,0-57.66-26.01-57.66-57.66c0-31.65,24.49-57.66,57.66-57.66c20.23,0,36.79,9.82,46.98,24.38c1,1.43,0.51,3.42-1.01,4.26
		l-11.69,6.45c-1.34,0.74-3,0.32-3.88-0.93c-6.69-9.53-17.51-15.51-30.39-15.51c-21.68,0-37.5,16.47-37.5,39.02
		c0,22.33,15.82,38.8,37.5,38.8c12.89,0,23.72-5.8,30.41-15.32C990.86,1298.59,992.5,1298.16,993.84,1298.88z"/>
	<path class="st0" d="M1133.41,1276.35c0,31.65-24.49,57.66-57.66,57.66c-33.16,0-57.66-26.01-57.66-57.66
		c0-31.65,24.49-57.66,57.66-57.66C1108.92,1218.69,1133.41,1244.71,1133.41,1276.35z M1113.25,1276.35
		c0-22.54-15.82-39.02-37.5-39.02c-21.68,0-37.28,16.47-37.28,39.02c0,22.33,15.61,38.8,37.28,38.8
		C1097.43,1315.15,1113.25,1298.68,1113.25,1276.35z"/>
	<path class="st0" d="M1263.03,1182.43v145.79c0,1.64-1.33,2.97-2.97,2.97h-13.79c-1.64,0-2.97-1.33-2.97-2.97v-3.14
		c0-3.17-3.74-4.9-6.13-2.81c-7.99,7.01-18.9,11.74-33.75,11.74c-34.25,0-54.84-28.83-54.84-57.66c0-28.83,20.59-57.66,54.84-57.66
		c14.87,0,25.78,4.74,33.77,11.65c2.39,2.07,6.11,0.33,6.11-2.83v-45.09c0-1.64,1.33-2.97,2.97-2.97h13.79
		C1261.7,1179.46,1263.03,1180.79,1263.03,1182.43z M1243.3,1276.35c0-21.68-13.87-39.02-37.93-39.02
		c-22.76,0-36.42,16.91-36.42,39.02c0,22.11,13.66,38.8,36.42,38.8C1229.43,1315.15,1243.3,1298.03,1243.3,1276.35z"/>
	<path class="st0" d="M1390.07,1284.81h-80.19c-2.19,0-3.81,2.07-3.24,4.18c4.3,15.7,17.26,26.16,37.01,26.16
		c10.83,0,20.76-3.76,27.04-10.29c1.11-1.15,2.87-1.37,4.21-0.51l10.7,6.85c1.72,1.1,2.06,3.47,0.72,5.01
		c-9.88,11.36-24.9,17.8-42.68,17.8c-36.42,0-58.96-26.01-58.96-57.66c0-31.65,23.41-57.66,55.71-57.66c29.17,0,56.48,23.9,53,63.07
		C1393.25,1283.49,1391.8,1284.81,1390.07,1284.81z M1369.14,1267.9c2.13,0,3.73-1.97,3.27-4.05c-3.62-16.3-14.75-26.51-32-26.51
		c-17.38,0-29.61,10.5-33.79,26.4c-0.55,2.1,1.07,4.16,3.24,4.16H1369.14z"/>
</g>
<text transform="matrix(1 0 0 1 1153.0549 1364.891)" class="st1 st2 st3">development group</text>
</svg>
